<?xml version="1.0" encoding="UTF-8"?>
<svg width="53px" height="15px" viewBox="0 0 53 15" version="1.1" xmlns="http://www.w3.org/2000/svg" xmlns:xlink="http://www.w3.org/1999/xlink">
    <title>goplek-footer</title>
    <g id="SPLASH" stroke="none" stroke-width="1" fill="none" fill-rule="evenodd">
        <g id="Artboard-Copy" transform="translate(-1260.000000, -1607.000000)" fill="#FFFFFF" fill-rule="nonzero">
            <g id="goplek-footer" transform="translate(1260.000000, 1607.000000)">
                <path d="M26.1419502,3.10284718 C28.2298551,3.10284718 30.2142276,4.75014527 30.2142276,7.7745497 L30.2142276,7.7745497 L30.2142276,7.80941315 C30.2142276,10.8251017 28.2643659,12.4723998 26.1419502,12.4723998 C24.7874003,12.4723998 23.9591405,11.8448576 23.3552011,11.1214411 L23.3552011,11.1214411 L23.3552011,15 L20.8186553,15 L20.8186553,3.26844858 L23.3552011,3.26844858 L23.3552011,4.56711215 C23.9763959,3.73038931 24.8219111,3.10284718 26.1419502,3.10284718 Z M3.96874491,3.10284718 C4.65896142,3.10284718 5.21976233,3.23358513 5.66840306,3.48634515 C6.10841608,3.74782104 6.50529058,4.06159211 6.85039883,4.44509007 L6.85039883,3.26844858 L9.37831679,3.26844858 L9.37831679,10.2411389 C9.37831679,11.8448576 8.9986977,13.0214991 8.24808726,13.7884951 C7.82532964,14.2155724 7.29903956,14.5206275 6.66058929,14.7123766 C6.00488361,14.9041255 5.25427315,15 4.39150253,15 C3.65814748,15 2.95930327,14.9215573 2.29496988,14.7559559 C1.6306365,14.5903545 1.01806935,14.363742 0.448640729,14.0586869 L1.31141136,12.141197 C1.7773075,12.4026729 2.24320365,12.6031377 2.7177275,12.7425915 C3.19225135,12.8907612 3.72716914,12.9604881 4.32248088,12.9604881 C5.1852515,12.9604881 5.82370177,12.7513074 6.24645938,12.3416618 C6.66058929,11.9233004 6.86765424,11.31319 6.86765424,10.5113306 L6.86765424,10.0755375 C6.48803517,10.5374783 6.08253297,10.8948286 5.63389223,11.1475886 C5.19387921,11.4090645 4.6330783,11.5310866 3.9514895,11.5310866 C3.43382712,11.5310866 2.93342015,11.4352121 2.45026859,11.252179 C1.97574475,11.0691459 1.55298714,10.7989541 1.18199577,10.4416038 C0.811004395,10.0842534 0.526290086,9.63974435 0.310597428,9.12550844 C0.112160182,8.60255667 0,8.00987799 0,7.33875655 L0,7.3038931 C0,6.63277166 0.112160182,6.03137712 0.336480547,5.5171412 C0.560800912,4.99418943 0.854142927,4.55839629 1.21650659,4.20104591 C1.57887026,3.84369554 2.00162787,3.57350378 2.48477942,3.3817548 C2.95930327,3.19872168 3.45108253,3.10284718 3.96874491,3.10284718 Z M39.1870421,3.10284718 C42.1722285,3.10284718 43.5354062,5.43869844 43.5440338,8.00987799 C43.5440338,8.21034284 43.5267785,8.44567114 43.509523,8.68099943 L43.509523,8.68099943 L37.2889468,8.68099943 C37.5391503,9.84020919 38.341527,10.4503196 39.4717565,10.4503196 C40.3172717,10.4503196 40.9384665,10.1801278 41.6373108,9.52643814 L41.6373108,9.52643814 L43.0867654,10.8251017 C42.2585056,11.8710053 41.0592544,12.5072632 39.4372456,12.5072632 C36.754029,12.5072632 34.7696565,10.5984892 34.7696565,7.83556073 L34.7696565,7.83556073 L34.7696565,7.80069728 C34.7696565,5.22951773 36.5814748,3.10284718 39.1870421,3.10284718 Z M15.1243692,3.10284718 C17.8938629,3.10284718 19.947257,5.17722256 19.947257,7.7745497 L19.947257,7.7745497 L19.947257,7.80941315 C19.947257,10.3980244 17.8766076,12.5072632 15.0898583,12.5072632 C14.0890444,12.5072632 13.1745076,12.2283556 12.4238971,11.757699 L12.4238971,11.757699 L14.0890444,10.0581058 C14.3910141,10.2149913 14.7447501,10.3021499 15.1329969,10.3021499 C16.5824515,10.3021499 17.4538499,9.17780362 17.4538499,7.8442766 L17.4538499,7.8442766 L17.4538499,7.80941315 C17.4538499,6.47588613 16.4961745,5.31667636 15.0984861,5.31667636 C14.7361224,5.31667636 14.4168973,5.38640327 14.132183,5.50842534 L14.132183,5.50842534 L12.5015465,3.82626381 C13.2435292,3.36432307 14.1408106,3.10284718 15.1243692,3.10284718 Z M33.7774703,0 L33.7774703,12.2980826 L31.2409247,12.2980826 L31.2409247,0 L33.7774703,0 Z M53,3.59965138 L49.9026535,6.93782686 L53,12.2980826 L50.1010906,12.2980826 L46.9951164,6.93782686 L50.1010906,3.59965138 L53,3.59965138 Z M46.9951164,0 L46.9951164,12.2980826 L44.4671985,12.2980826 L44.4671985,0 L46.9951164,0 Z M12.3462477,4.89831495 L15.1071138,7.74840211 L12.3462477,10.5984892 L9.85284063,10.5984892 L12.6137067,7.74840211 L9.85284063,4.89831495 L12.3462477,4.89831495 Z M25.4948723,5.27309704 C24.3128765,5.27309704 23.3293179,6.26670542 23.3293179,7.76583383 L23.3293179,7.76583383 L23.3293179,7.80069728 C23.3293179,9.2998257 24.3128765,10.2934341 25.4948723,10.2934341 C26.676868,10.2934341 27.677682,9.31725743 27.677682,7.80069728 L27.677682,7.80069728 L27.677682,7.76583383 C27.677682,6.26670542 26.676868,5.27309704 25.4948723,5.27309704 Z M4.69347224,5.23823359 C4.38287482,5.23823359 4.0981605,5.29052877 3.83932932,5.38640327 C3.58049812,5.49099362 3.34755006,5.63044742 3.15774052,5.81348055 C2.96793098,5.99651367 2.81263226,6.2231261 2.70047208,6.47588613 C2.5883119,6.73736201 2.53654566,7.01626962 2.53654566,7.31260896 L2.53654566,7.34747241 C2.53654566,7.97501454 2.74361061,8.48053459 3.14911282,8.86403256 C3.55461501,9.23009879 4.07227739,9.42184778 4.69347224,9.42184778 C5.00406967,9.42184778 5.28878398,9.3695526 5.55624288,9.27367811 C5.82370177,9.16908775 6.05664985,9.02963395 6.24645938,8.84660083 C6.43626892,8.66356771 6.59156764,8.43695527 6.70372782,8.18419525 C6.815888,7.92271936 6.86765424,7.64381175 6.86765424,7.34747241 L6.86765424,7.31260896 C6.86765424,7.00755376 6.815888,6.72864615 6.70372782,6.47588613 C6.59156764,6.21441024 6.43626892,5.99651367 6.24645938,5.81348055 C6.05664985,5.63044742 5.82370177,5.48227775 5.55624288,5.38640327 C5.28878398,5.28181291 5.00406967,5.23823359 4.69347224,5.23823359 Z M39.1784144,5.15979083 C38.1258343,5.15979083 37.4442455,5.9180709 37.2458082,7.07728067 L37.2458082,7.07728067 L41.0592544,7.07728067 C40.9125835,5.93550262 40.24825,5.15979083 39.1784144,5.15979083 Z" id="Combined-Shape"></path>
            </g>
        </g>
    </g>
</svg>