<?xml version="1.0" encoding="UTF-8"?>
<svg width="184px" height="110px" viewBox="0 0 184 110" version="1.1" xmlns="http://www.w3.org/2000/svg" xmlns:xlink="http://www.w3.org/1999/xlink">
    <title>Recurso 1</title>
    <defs>
        <path d="M3.69659745,3.74389221 L12.1433226,3.74389221 C12.5380913,3.73288637 12.9318545,3.78913824 13.3077508,3.91023909 C13.9369072,4.11078578 14.3568209,4.70419668 14.3366371,5.36423409 C14.3380437,5.68910639 14.2366905,6.00610472 14.0470703,6.26990046 L13.8560794,6.47321332 C13.3635582,6.85430304 12.7450228,7.03480091 12.1248396,6.97841497 L3.69659745,6.97841497 L3.69659745,3.74389221 Z M1.31845309,0.047294755 C1.01758006,0.0487833401 0.726266326,0.153134528 0.49287966,0.343022551 C0.19106209,0.596027214 0.0117166459,0.965927193 0,1.35958685 L0,14.3778064 L2.3165344,14.3778064 C2.60348206,14.3797856 2.88450297,14.2961229 3.12362485,14.137492 C3.48746286,13.8850139 3.70578033,13.4713598 3.70891944,13.0285128 L3.70891944,10.6873344 L3.92455429,10.6873344 L11.8537558,10.6503684 C13.420746,10.695522 14.9713422,10.3211668 16.3451217,9.56603319 C16.6341431,9.407296 16.9048046,9.21721311 17.1522122,8.99922158 C17.3253537,8.85926387 17.4861325,8.70466888 17.6327698,8.5371469 C18.3748995,7.66062828 18.7714439,6.54329316 18.7479101,5.39503907 C18.7788598,4.01994497 18.2206103,2.69718513 17.2138221,1.76005157 C16.9966316,1.56386696 16.7614792,1.38853408 16.5114686,1.23636693 C15.1120112,0.380839551 13.4931907,-0.0474198484 11.8537558,0.00416778473 L1.31845309,0.047294755 Z" id="path-1"></path>
        <linearGradient x1="54.6266842%" y1="3.79132675%" x2="54.6266842%" y2="-150.395019%" id="linearGradient-3">
            <stop stop-color="#4C4C4B" offset="0%"></stop>
            <stop stop-color="#C2C2C2" offset="100%"></stop>
        </linearGradient>
        <path d="M3.70983243,3.69659745 L12.4646074,3.69659745 C12.5774543,3.70347588 12.6906153,3.70347588 12.8034622,3.69659745 C12.9988298,3.72715946 13.1893752,3.78308038 13.3702738,3.86294434 L13.4318837,3.86294434 C13.5089461,3.89419553 13.5814705,3.93563803 13.6475186,3.98616425 C14.2909693,4.40122828 14.5258052,5.22975041 14.1958472,5.92071692 C14.0782019,6.17590888 13.8873396,6.39036093 13.6475186,6.53681649 C13.1896281,6.79248182 12.6675313,6.91016758 12.1442356,6.87567126 L3.70983243,6.87567126 L3.70983243,3.69659745 Z M1.37481505,8.75530155e-15 C1.01243985,0.00192647155 0.665226258,0.145677324 0.407538713,0.400464724 C0.341516533,0.460018955 0.281658358,0.526069355 0.228869836,0.597616588 C0.169158335,0.687516742 0.121516391,0.784872021 0.0871669335,0.887183388 C0.0235787249,1.06488784 -0.00569091107,1.25304978 0.000912993042,1.44167301 L0.000912993042,14.3489591 L2.36057437,14.3489591 C2.64021575,14.3534771 2.91411171,14.2693673 3.14302083,14.1086803 C3.49749887,13.8501368 3.7079194,13.4384444 3.70983243,12.999701 L3.70983243,10.6585226 L6.32825563,10.6585226 L10.166556,10.6585226 L10.2897759,10.6585226 L10.6532746,11.1205973 C11.3802721,12.036532 12.0703037,12.8846958 12.7233692,13.6650886 C12.85948,13.8497415 13.0237161,14.0118987 13.2100879,14.1456462 L13.3209858,14.2195782 L13.4318837,14.2811881 C13.6308282,14.3444243 13.8394833,14.3715494 14.0479833,14.3612811 L18.5023832,14.3612811 C18.4440089,14.2830184 18.3779638,14.2107816 18.3052314,14.1456462 C17.9478936,13.7575035 17.5720729,13.3323948 17.1839301,12.8826421 L16.5678306,12.1679666 C16.2474588,11.7736629 15.6683252,11.1329193 14.8119468,10.2518969 C15.1003068,10.168187 15.384099,10.0694766 15.6621642,9.95616913 L15.877799,9.85143221 L16.3830007,9.59267038 C16.4073678,9.57272445 16.4343069,9.55614651 16.4630936,9.54338242 L16.9251683,9.23533263 L17.0791932,9.11211271 L17.1654472,9.05050276 L17.2640231,8.94576583 C17.3537865,8.86710087 17.4362676,8.78049569 17.5104629,8.68700401 C17.6680286,8.5208976 17.8161264,8.34605991 17.9540546,8.16331937 C18.1019185,7.93536253 18.2189774,7.73204967 18.3175534,7.54721979 C18.6248376,6.89618859 18.7827116,6.18470303 18.7796724,5.46480323 L18.7796724,5.32926132 C18.7815487,4.7383816 18.6772052,4.15197107 18.4715783,3.59802152 C18.1125279,2.61300624 17.4249623,1.78183523 16.5247036,1.24452114 C16.3337127,1.10897924 16.1488829,0.998081312 15.976375,0.89950538 L15.4958173,0.69619252 C14.3370391,0.232404345 13.0963204,0.00815283523 11.8485078,0.0369659745 L1.37481505,8.75530155e-15 Z" id="path-4"></path>
        <path d="M9.24149363,0.0308449853 C8.70100029,0.0241375184 8.18329858,0.248250815 7.81830361,0.64694456 C7.68585151,0.817217921 7.56835583,0.998614759 7.46712685,1.18911219 C7.43016088,1.25072214 6.98040819,2.0331686 6.13019077,3.53645157 C5.57980848,4.5098889 4.85897198,5.78110769 3.96768126,7.35010794 C2.83816538,9.32162658 1.51560495,11.6484293 2.18882539e-15,14.3305161 L2.18882539e-15,14.3305161 L3.16059082,14.3305161 C3.82318624,14.3457264 4.44961123,14.0290466 4.83022067,13.4864597 L5.76053103,11.8599568 C5.76099397,11.8274552 5.77428061,11.796453 5.797497,11.7737029 L5.797497,11.7737029 L7.52257581,8.72400999 L7.52257581,8.72400999 L8.06474344,7.76905565 L8.06474344,7.76905565 L10.7447766,3.06205489 C10.7817426,3.14830884 11.8558095,5.03973453 13.9669774,8.73633198 L15.7290222,11.8599568 L15.8645641,12.0940747 C15.993945,12.3281925 16.1972578,12.6793693 16.4806636,13.1660879 C16.7960674,13.9019607 17.5286421,14.3708085 18.3289624,14.3489991 L21.5018752,14.3489991 L20.269676,12.1926506 C20.2080661,12.1063967 19.0477452,10.0671071 16.7887134,6.07478182 C16.4252147,5.45868224 16.1048429,4.84258267 15.8214371,4.36818599 C14.8233558,2.61024854 14.2935101,1.68199185 14.2319002,1.58341591 L14.1641292,1.460196 C14.0430986,1.21870144 13.9051597,0.986058251 13.7513425,0.76400348 C13.3906458,0.279784799 12.8210381,-0.0038752602 12.2172546,0 L9.24149363,0.0308449853 Z" id="path-6"></path>
        <linearGradient x1="54.0461054%" y1="3.79132675%" x2="54.0461054%" y2="-150.395019%" id="linearGradient-8">
            <stop stop-color="#4C4C4B" offset="0%"></stop>
            <stop stop-color="#C2C2C2" offset="100%"></stop>
        </linearGradient>
        <path d="M9.24149363,0.0308449853 C8.70100029,0.0241375184 8.18329858,0.248250815 7.81830361,0.64694456 C7.68585151,0.817217921 7.56835583,0.998614759 7.46712685,1.18911219 C7.43016088,1.25072214 6.98040819,2.0331686 6.13019077,3.53645157 C5.58391582,4.5098889 4.86307931,5.78110769 3.96768126,7.35010794 C2.83816538,9.32162658 1.51560495,11.6484293 8.75530155e-15,14.3305161 L8.75530155e-15,14.3305161 L3.16675182,14.3305161 C3.82909731,14.3446241 4.45503281,14.0281918 4.83638166,13.4864597 L5.76053103,11.8599568 C5.76099397,11.8274552 5.77428061,11.796453 5.797497,11.7737029 L5.797497,11.7737029 L7.52257581,8.72400999 L7.52257581,8.72400999 L8.07090443,7.76905565 L8.07090443,7.76905565 L10.7509376,3.06205489 C10.7961182,3.14830884 11.8701851,5.03973453 13.9731384,8.73633198 L15.7351831,11.8599568 L15.8707251,12.0940747 C16.000106,12.3281925 16.2034188,12.6793693 16.4868246,13.1660879 C16.8035905,13.9008046 17.5352823,14.3690874 18.3351234,14.3489991 L21.5080362,14.3489991 L20.275837,12.1926506 C20.2142271,12.1063967 19.0539062,10.0671071 16.7948744,6.07478182 C16.4313757,5.45868224 16.1110039,4.84258267 15.8275981,4.36818599 C14.8295168,2.6123022 14.3058321,1.68199185 14.2442222,1.58341591 L14.1702902,1.460196 C14.0492596,1.21870144 13.9113207,0.986058251 13.7575035,0.76400348 C13.3968068,0.279784799 12.8271991,-0.0038752602 12.2234156,0 L9.24149363,0.0308449853 Z" id="path-9"></path>
        <path d="M0,0 C1.26510867,14.1957214 11.3926195,26.0276423 25.2231166,29.4680427 L25.2231166,21.9885938 C25.2441195,20.1810904 24.2490454,18.5146984 22.6478204,17.6758968 C17.0581008,14.794608 12.8747066,9.77097842 11.0528264,3.75204641 C10.4277617,1.54399717 8.41880033,0.0146753062 6.12402978,0 L0,0 Z" id="path-11"></path>
        <linearGradient x1="45.3127985%" y1="45.8171082%" x2="-94.6903852%" y2="45.8171082%" id="linearGradient-13">
            <stop stop-color="#C7C6C6" offset="0%"></stop>
            <stop stop-color="#C7C6C6" offset="26%"></stop>
            <stop stop-color="#BAB9B9" offset="32%"></stop>
            <stop stop-color="#969695" offset="43%"></stop>
            <stop stop-color="#5E5E5D" offset="59%"></stop>
            <stop stop-color="#4C4C4B" offset="63%"></stop>
            <stop stop-color="#C2C2C2" offset="100%"></stop>
        </linearGradient>
    </defs>
    <g id="SPLASH" stroke="none" stroke-width="1" fill="none" fill-rule="evenodd">
        <g id="Artboard-Copy" transform="translate(-618.000000, -35.000000)">
            <g id="Recurso-1" transform="translate(618.000000, 35.000000)">
                <path d="M123.571092,28.0444847 C123.55126,43.9743787 111.306801,57.2213397 95.4276632,58.4921257 L95.4276632,52.195588 C95.4518418,50.0181641 96.9020209,48.1146474 98.9948797,47.5132312 C106.738194,45.1262209 112.337222,38.3861131 113.263746,30.3363751 C114.19786,22.105067 109.413318,14.2933624 101.65643,11.3851522 C92.0144715,7.68855472 82.7852999,13.3443488 80.5673414,21.821879 C80.0156519,24.1044662 77.9866643,25.7225838 75.6385448,25.7525943 L69.8780138,25.7525943 C69.8898908,17.5942148 73.7613074,9.92255447 80.3170389,5.06645711 C86.8727703,0.210359748 95.3396341,-1.25744687 103.147391,1.10861126 C115.223881,4.48451482 123.576752,15.4865318 123.583414,28.0260017" id="Path" fill="#F29105" fill-rule="nonzero"></path>
                <g id="Clipped" transform="translate(0.000000, 73.539271)">
                    <mask id="mask-2" fill="white">
                        <use xlink:href="#path-1"></use>
                    </mask>
                    <g id="Shape"></g>
                    <rect id="Rectangle" fill="url(#linearGradient-3)" fill-rule="nonzero" mask="url(#mask-2)" x="0" y="0.0288117677" width="18.7479101" height="14.3489591"></rect>
                </g>
                <g id="Clipped" transform="translate(39.836086, 73.586565)">
                    <mask id="mask-5" fill="white">
                        <use xlink:href="#path-4"></use>
                    </mask>
                    <g id="Shape"></g>
                    <rect id="Rectangle" fill="url(#linearGradient-3)" fill-rule="nonzero" mask="url(#mask-5)" x="0.000912993042" y="-0.0184829873" width="18.7479101" height="14.3489591"></rect>
                </g>
                <path d="M85.6378409,73.4633454 L98.6991519,73.4633454 C99.0665666,73.4653724 99.422557,73.5912714 99.7095552,73.8206831 C100.110593,74.1524446 100.337605,74.6496008 100.325655,75.1699412 L100.325655,77.1784258 L100.325655,77.1784258 C99.3645395,77.1784258 97.3375719,77.1784258 94.23243,77.1784258 L88.5458309,77.1784258 L85.6748069,77.1784258 C85.571087,77.1796125 85.4709655,77.216614 85.3914011,77.2831627 C85.3189804,77.3662705 85.283405,77.4752202 85.2928252,77.5850515 L85.2928252,78.367498 C85.2801636,78.5320285 85.3745876,78.6860886 85.526943,78.7494797 L85.576231,78.7494797 L85.6316799,78.7494797 L90.9671023,78.7494797 L91.5832018,78.7494797 C92.3902923,78.7494797 93.9305412,78.7494797 96.1977876,78.7494797 L96.2778806,78.7494797 C96.6744197,78.7610537 97.0696753,78.8001675 97.4607918,78.8665386 C97.7633726,78.9127919 98.060576,78.9891567 98.3479752,79.0944955 C99.0333146,79.3328833 99.6032732,79.8214192 99.9436731,80.4622365 C100.24513,81.0942768 100.390896,81.7893024 100.368782,82.4892041 L100.368782,83.9616821 C100.368782,85.4218381 99.9375121,86.4260804 99.0811337,87.04218 C98.1544155,87.5991607 97.0794789,87.8592953 96.0006358,87.7876605 L83.1734426,87.7876605 C82.6917229,87.7749668 82.2404303,87.5493205 81.9412435,87.1715609 C81.6873082,86.877689 81.5512267,86.5001726 81.5592617,86.1118696 L81.5592617,84.07258 L96.0684067,84.07258 C96.2220687,84.0808881 96.3606757,83.980783 96.4011005,83.8323012 C96.4045474,83.8119092 96.4045474,83.7910833 96.4011005,83.7706912 C96.4031686,83.758456 96.4031686,83.7459605 96.4011005,83.7337253 L96.4011005,82.64939 C96.4001251,82.5041018 96.3015004,82.3776598 96.1608217,82.3413402 C96.1200022,82.3348829 96.0784213,82.3348829 96.0376018,82.3413402 L85.6378409,82.3413402 C83.9866941,82.3413402 82.8530709,81.9285535 82.2369713,81.1091411 C82.1283375,80.9799547 82.0371924,80.8370226 81.9658875,80.6840324 C81.8890251,80.5294122 81.8251417,80.3686735 81.7748966,80.2034747 C81.711148,79.9872278 81.6617525,79.7670062 81.6270327,79.5442482 C81.5786254,79.1353834 81.5580414,78.7237032 81.5654227,78.312049 L81.5654227,78.2319561 C81.5108326,77.3050767 81.6256611,76.3760095 81.9042775,75.490313 C82.0404671,75.1341552 82.2504256,74.810819 82.5203771,74.5415196 C82.6351791,74.4029878 82.7701798,74.2825257 82.9208418,74.1841819 C83.3266741,73.9041834 83.7860596,73.7111996 84.2700999,73.6173702 C84.7181269,73.5110192 85.177382,73.4593013 85.6378409,73.4633454" id="Path" fill="#F29105" fill-rule="nonzero"></path>
                <path d="M108.076187,73.4633454 L115.469382,73.4633454 C116.718108,73.4658259 117.934955,73.8578012 118.950345,74.5846466 C119.190273,74.7421852 119.415084,74.9216214 119.621893,75.1206532 L119.757435,75.2315511 C120.090129,75.6196939 120.336569,75.9154217 120.484433,76.1187345 C121.199686,77.153969 121.578332,78.3845692 121.568768,79.6428241 L121.568768,81.6328257 C121.580938,83.1152994 121.058139,84.5524494 120.09629,85.6805999 C119.864094,85.9436184 119.608379,86.1848978 119.332327,86.4014364 C119.006798,86.6766191 118.65133,86.9142867 118.272635,87.1099509 C117.403863,87.5718643 116.434835,87.8130633 115.450899,87.8123062 L108.09467,87.8123062 C106.771649,87.8087513 105.485429,87.3764085 104.428878,86.5801053 C104.155507,86.3560012 103.894318,86.1174352 103.646432,85.8654298 C103.383719,85.5989046 103.152217,85.3033258 102.9564,84.9844074 C102.310696,83.9977678 101.969979,82.8427596 101.976701,81.6636307 L101.976701,79.5935361 C101.97241,78.1989906 102.448936,76.8455694 103.32606,75.7613968 C103.455441,75.6135329 103.671075,75.379415 103.942159,75.0652042 C104.176963,74.8535734 104.430619,74.663847 104.699962,74.4983926 C105.687602,73.8233627 106.855263,73.4606153 108.051543,73.4571844 M105.667238,79.6859511 L105.667238,81.5650548 C105.658153,81.9974964 105.769044,82.4240016 105.98761,82.7972539 C106.078253,82.9926726 106.203488,83.1700889 106.35727,83.3209386 C106.818148,83.8070687 107.461854,84.0775149 108.131636,84.066419 L115.352323,84.066419 C116.126326,84.080087 116.858053,83.7142232 117.31152,83.0868207 C117.445897,82.9115459 117.559601,82.7213509 117.650375,82.5200091 C117.772157,82.1911154 117.82866,81.8416361 117.816722,81.4911228 L117.816722,79.7414 C117.834218,79.4001734 117.783964,79.05886 117.668858,78.7371577 C117.46197,78.2165116 117.083856,77.7818978 116.596845,77.5049586 C116.224846,77.281406 115.798644,77.1642004 115.364645,77.1661038 L108.137797,77.1661038 C107.352884,77.1587155 106.614102,77.5361616 106.160118,78.1765071 C106.03462,78.3444465 105.933023,78.5289809 105.858229,78.7248357 C105.738146,79.0284532 105.681533,79.353452 105.691882,79.6797901" id="Shape" fill="#F29105" fill-rule="nonzero"></path>
                <path d="M124.988121,73.4633454 L127.366265,73.4633454 C127.370032,73.498156 127.370032,73.5332716 127.366265,73.5680823 L127.366265,83.4749634 L127.366265,83.4749634 L127.366265,83.4749634 C127.370493,83.4869227 127.370493,83.4999702 127.366265,83.5119294 L127.366265,84.054097 L140.550796,84.054097 L140.550796,86.3275045 C140.579342,86.9166915 140.23026,87.4588828 139.682096,87.6767625 C139.534236,87.7320844 139.377882,87.7612705 139.220021,87.7630324 L125.006604,87.7630324 C124.544866,87.7652435 124.113463,87.5333066 123.860659,87.1469169 C123.743631,86.9748613 123.673549,86.7752345 123.657346,86.5677833 L123.657346,86.4692074 L123.657346,74.7633155 C123.660963,74.4121171 123.805208,74.0770246 124.05781,73.8330051 C124.30791,73.5781758 124.649552,73.4339762 125.006604,73.4325404" id="Path" fill="#F29105" fill-rule="nonzero"></path>
                <path d="M165.995709,73.2538715 L176.469401,73.2538715 C177.715444,73.2220925 178.954744,73.4464666 180.11055,73.913098 C180.320024,73.993191 180.48021,74.0609619 180.597268,74.1164109 C180.714327,74.1718599 180.948445,74.3258848 181.145597,74.4552657 C182.04463,74.9968182 182.731557,75.8293912 183.092472,76.814927 C183.298099,77.3688766 183.402442,77.9552871 183.400597,78.5461668 L183.400597,78.6817088 C183.404579,79.4004195 183.244428,80.1105629 182.932286,80.7579643 C182.839871,80.9427942 182.716651,81.152268 182.574948,81.3740639 C182.433245,81.5958597 182.303864,81.7129187 182.131356,81.8977485 C182.051263,81.9901635 181.965009,82.0764174 181.884917,82.1565104 L181.78018,82.2550863 L181.700087,82.3166962 L181.546062,82.4460772 C181.422842,82.5323311 181.268817,82.637068 181.083987,82.7541269 L180.997733,82.8034149 L180.492532,83.0621767 L180.276897,83.1607527 C180.001401,83.2770605 179.719608,83.3778479 179.43284,83.4626415 C180.283058,84.3436638 180.868352,84.9782464 181.182563,85.3787111 L181.798663,86.0872256 C182.192966,86.5431393 182.562626,86.962087 182.919964,87.3563908 C182.995965,87.4181432 183.062403,87.4908096 183.117116,87.5720256 L178.668877,87.5720256 C178.460377,87.582294 178.251722,87.5551688 178.052777,87.4919327 L177.941879,87.4303227 L177.82482,87.3563908 C177.642075,87.2180899 177.480224,87.054164 177.344263,86.8696721 C176.691197,86.0933866 176.001166,85.2493302 175.274168,84.3251809 L174.910669,83.8631062 L174.787449,83.8631062 L170.949149,83.8631062 L168.330726,83.8631062 L168.330726,86.1981236 C168.330775,86.6390398 168.120141,87.0534382 167.763914,87.3132638 C167.534453,87.4721538 167.260489,87.5541274 166.981468,87.5473816 L164.621806,87.5473816 L164.621806,74.6955445 C164.615884,74.5049498 164.645124,74.3148948 164.70806,74.1348939 C164.742901,74.0347206 164.790529,73.9394646 164.849763,73.8514881 C164.898736,73.7787702 164.956698,73.7125287 165.022271,73.6543362 C165.279959,73.3995488 165.627172,73.255798 165.989548,73.2538715 M168.330726,76.9504689 L168.330726,80.1973137 L176.765129,80.1973137 C177.288122,80.2280155 177.809168,80.1105666 178.268412,79.8584589 C178.506596,79.7100527 178.696968,79.4961518 178.816741,79.2423594 C178.912749,79.0272918 178.961089,78.7939981 178.958547,78.5584888 C178.946609,78.0588486 178.688231,77.5974589 178.268412,77.3262897 L178.052777,77.2030698 L177.991167,77.2030698 C177.809922,77.1241583 177.6195,77.0682738 177.424356,77.0367229 L177.085501,77.0367229 L168.330726,76.9504689 Z" id="Shape" fill="#F29105" fill-rule="nonzero"></path>
                <g id="Clipped" transform="translate(16.868806, 73.537237)">
                    <mask id="mask-7" fill="white">
                        <use xlink:href="#path-6"></use>
                    </mask>
                    <g id="Path"></g>
                    <rect id="Rectangle" fill="url(#linearGradient-8)" fill-rule="nonzero" mask="url(#mask-7)" x="-2.18882539e-15" y="0.0308449853" width="21.5141972" height="14.3489591"></rect>
                </g>
                <g id="Clipped" transform="translate(59.761659, 73.537237)">
                    <mask id="mask-10" fill="white">
                        <use xlink:href="#path-9"></use>
                    </mask>
                    <g id="Path"></g>
                    <rect id="Rectangle" fill="url(#linearGradient-8)" fill-rule="nonzero" mask="url(#mask-10)" x="1.75106031e-14" y="0.0308449853" width="21.5141972" height="14.3489591"></rect>
                </g>
                <path d="M162.034188,85.4464821 C161.972578,85.3520135 160.812257,83.3127239 158.553226,79.3286133 C158.189727,78.7125137 157.863194,78.0964142 157.585949,77.6158565 C156.587868,75.8620264 156.058022,74.9358233 155.996412,74.8372474 C155.976186,74.7949175 155.953559,74.7537772 155.928641,74.7140275 C155.80591,74.4714852 155.668042,74.2369041 155.515855,74.011674 C155.152572,73.53133 154.584007,73.2504728 153.981767,73.2538715 L150.944396,73.2538715 C150.403585,73.2455762 149.88526,73.4699592 149.521206,73.8699711 C149.388778,74.0424359 149.271294,74.2258763 149.170029,74.4182997 C149.133063,74.4799096 148.68331,75.2623561 147.833093,76.7656391 L145.670584,80.5792954 C144.545175,82.5425994 143.222615,84.8694022 141.702902,87.5597036 L141.702902,87.5597036 L144.863493,87.5597036 C145.526844,87.5782736 146.154771,87.2608347 146.533123,86.7156472 L147.463433,85.0891443 C147.46415,85.0584837 147.477532,85.029489 147.500399,85.0090514 L147.500399,85.0090514 L149.225478,81.9285535 L149.225478,81.9285535 L149.767646,80.9735992 L149.767646,80.9735992 L152.447679,76.2604374 C152.484645,76.3466914 153.562819,78.2442781 155.66988,81.9347145 L157.431924,85.0583394 L157.561305,85.2924572 C157.696847,85.526575 157.90016,85.9085568 158.177405,86.3644705 C158.492809,87.1003432 159.225383,87.569191 160.025704,87.5473816 L163.266387,87.5473816 L162.034188,85.4464821 Z" id="Path" fill="#F29105" fill-rule="nonzero"></path>
                <g id="Clipped" transform="translate(59.798625, 29.264362)">
                    <mask id="mask-12" fill="white">
                        <use xlink:href="#path-11"></use>
                    </mask>
                    <g id="Path"></g>
                    <polygon id="Rectangle" fill="url(#linearGradient-13)" fill-rule="nonzero" mask="url(#mask-12)" transform="translate(12.605304, 14.732632) rotate(-45.920000) translate(-12.605304, -14.732632) " points="-6.74638383 -4.56976814 31.9569915 -4.56976814 31.9569915 34.0350312 -6.74638383 34.0350312"></polygon>
                </g>
                <path d="M96.9124632,104.163587 C96.7859676,103.021709 95.9282827,102.09651 94.7992416,101.884019 C94.1924036,101.747139 93.564895,101.728314 92.9509429,101.82857 C92.0867527,101.949833 91.2916974,102.368054 90.7021794,103.011481 L90.4988666,103.25176 L90.4988666,98.569403 L88.1576882,98.569403 L88.1576882,109.75161 L90.5666375,109.75161 L90.5666375,105.950276 C90.5398748,105.219966 90.9256414,104.53654 91.5647188,104.18207 C92.143989,103.847989 92.8200377,103.721909 93.4807885,103.824732 C94.0010895,103.863943 94.4227084,104.262424 94.4911918,104.779687 C94.5353761,105.009139 94.5580646,105.242213 94.5589628,105.475879 C94.5589628,106.823084 94.5589628,108.170288 94.5589628,109.517492 L94.5589628,109.708483 L96.9679121,109.708483 C96.9706905,109.667457 96.9706905,109.62629 96.9679121,109.585263 C96.9679121,108.045014 96.9679121,106.504766 96.9679121,104.976839 C96.969252,104.704766 96.9507197,104.43296 96.9124632,104.163587 L96.9124632,104.163587 Z" id="Path" fill="#F29104" fill-rule="nonzero"></path>
                <polygon id="Path" fill="#F29104" fill-rule="nonzero" points="39.5843977 109.708483 42.048796 109.708483 42.048796 105.130864 46.7496358 105.130864 46.7496358 103.239438 42.079601 103.239438 42.079601 100.46699 47.6244972 100.46699 47.6244972 98.557081 39.5843977 98.557081"></polygon>
                <path d="M105.353027,102.019561 C104.409299,101.716487 103.403089,101.663417 102.432715,101.865536 C101.636264,102.001026 100.890032,102.345441 100.270206,102.863617 C99.480707,103.555211 99.0011275,104.534227 98.938612,105.581939 C98.8760966,106.629652 99.235855,107.65875 99.9375121,108.439318 C100.881352,109.369509 102.143072,109.906786 103.467763,109.942601 C104.29137,110.006036 105.119724,109.962547 105.932161,109.81322 C106.486651,109.714644 107.04114,109.56678 107.589469,109.4374 L107.589469,107.509008 C107.343029,107.576779 107.127394,107.650711 106.899437,107.70616 C105.766766,108.049913 104.574287,108.150686 103.399992,108.001888 C102.816198,107.92464 102.274506,107.655961 101.859743,107.237924 C101.626075,107.005299 101.489532,106.692573 101.477761,106.363063 L107.638757,106.363063 C107.689657,106.372582 107.741881,106.372582 107.792782,106.363063 C107.84207,106.363063 107.909841,106.295292 107.909841,106.252165 C107.942335,105.842074 107.942335,105.430056 107.909841,105.019966 C107.776081,103.580507 106.75304,102.379975 105.353027,102.019561 Z M105.587145,105.100059 L101.465439,105.100059 C101.518744,104.527807 101.873413,104.027512 102.395749,103.787766 C103.178589,103.370551 104.120816,103.38451 104.890953,103.824732 C105.351104,104.082661 105.616573,104.587051 105.568662,105.112381 L105.587145,105.100059 Z" id="Shape" fill="#F29104" fill-rule="nonzero"></path>
                <path d="M55.4489618,102.259839 C54.4140053,101.773403 53.2523013,101.624687 52.128185,101.834731 C51.3265518,101.934959 50.5656472,102.245272 49.9225486,102.734236 C48.8972486,103.540263 48.3418693,104.804831 48.4420856,106.105168 C48.5423018,107.405505 49.2848908,108.57004 50.4215892,109.209443 C51.2064807,109.651718 52.0845164,109.902887 52.9845635,109.942601 C53.8081635,110.006593 54.63659,109.963101 55.4489618,109.81322 C56.0096124,109.714644 56.557941,109.56678 57.1062696,109.4374 L57.1062696,107.502847 L56.8413468,107.589101 C55.6640645,107.98332 54.4194188,108.136281 53.1817153,108.038854 C52.6082831,107.986814 52.0613762,107.773178 51.6045004,107.422754 C51.2495792,107.172354 51.0239392,106.777484 50.9884008,106.34458 L57.3896754,106.34458 C57.3896754,106.03653 57.4328024,105.759285 57.4328024,105.48204 C57.4955507,104.1026 56.7089118,102.824922 55.4489618,102.259839 L55.4489618,102.259839 Z M50.9637568,105.112381 C50.9952345,104.641289 51.2462069,104.212354 51.6414664,103.954113 C52.4271932,103.403756 53.4548773,103.339525 54.3030165,103.787766 C54.811134,104.029108 55.1262754,104.550303 55.103946,105.112381 L50.9637568,105.112381 Z" id="Shape" fill="#F29104" fill-rule="nonzero"></path>
                <path d="M65.6946977,102.124298 C64.7415554,101.766877 63.7119871,101.662858 62.7066147,101.822409 C61.8787673,101.925893 61.0937564,102.249258 60.4332073,102.75888 C59.4210337,103.569898 58.8774436,104.830442 58.9823955,106.123202 C59.0873474,107.415963 59.8271517,108.572315 60.956892,109.209443 C61.7291312,109.654413 62.5983882,109.903981 63.4890612,109.93644 C64.0929922,109.964164 64.6980969,109.951815 65.300394,109.899474 C66.0376334,109.839725 66.7642911,109.686527 67.4629035,109.443561 C67.5571006,109.424883 67.6196858,109.335087 67.6046064,109.240248 C67.6046064,108.704241 67.6046064,108.174395 67.6046064,107.64455 C67.6046064,107.601423 67.6046064,107.558296 67.6046064,107.502847 L67.4444205,107.552135 C66.3538673,107.922073 65.2072242,108.099282 64.0558728,108.075819 C63.3624523,108.077865 62.6858515,107.862387 62.1213202,107.45972 C61.7701598,107.200429 61.5460873,106.803821 61.5052206,106.369224 L67.9373001,106.369224 C67.9373001,106.03653 67.9804271,105.753124 67.9865881,105.432752 C68.0135433,103.951834 67.0906133,102.61954 65.6946977,102.124298 Z M61.5113816,105.112381 C61.5314131,104.747198 61.6900745,104.403432 61.9549733,104.151265 C62.4190306,103.706367 63.0517038,103.482015 63.6923741,103.535166 C64.1697819,103.519837 64.6398356,103.655679 65.0354711,103.923308 C65.4338692,104.205258 65.6650498,104.667619 65.6515707,105.155507 L61.5113816,105.112381 Z" id="Shape" fill="#F29104" fill-rule="nonzero"></path>
                <path d="M129.448682,102.222874 L129.448682,105.740802 C129.489534,106.410041 129.18205,107.052963 128.63543,107.441237 C128.029364,107.869092 127.27684,108.035579 126.546853,107.903312 C126.062723,107.861184 125.666608,107.500392 125.579576,107.022289 C125.52755,106.775195 125.502758,106.523143 125.505644,106.270648 C125.505644,104.915229 125.505644,103.55981 125.505644,102.204391 L125.505644,101.976434 L123.096695,101.976434 C123.096695,102.056527 123.096695,102.118137 123.096695,102.179747 C123.096695,103.68303 123.096695,105.182205 123.096695,106.677273 C123.094483,106.980507 123.117149,107.283412 123.164466,107.58294 C123.274967,108.656341 124.04595,109.545558 125.092858,109.807059 C125.973968,110.057982 126.910373,110.036505 127.779052,109.745449 C128.480267,109.541768 129.092353,109.107664 129.516453,108.51325 L129.633512,108.340742 L129.633512,109.763932 L131.845309,109.763932 L131.845309,101.982595 L129.442521,101.982595 L129.448682,102.222874 Z" id="Path" fill="#F29104" fill-rule="nonzero"></path>
                <path d="M143.588167,105.2356 C143.591548,104.912293 143.573022,104.589127 143.532718,104.268324 C143.473007,103.253837 142.820914,102.369888 141.869249,102.0134 C141.033318,101.709219 140.125097,101.66413 139.263148,101.884019 C138.352603,102.048529 137.551417,102.58414 137.05135,103.362658 C137.039267,103.366083 137.026468,103.366083 137.014384,103.362658 L137.014384,101.964112 L134.777943,101.964112 L134.777943,109.720805 L137.180731,109.720805 L137.180731,109.499009 C137.180731,108.26681 137.180731,107.065416 137.180731,105.845539 C137.163143,105.271101 137.419203,104.722402 137.870763,104.3669 C138.524579,103.842157 139.380364,103.640662 140.199619,103.818571 C140.637748,103.882987 140.988018,104.21599 141.074481,104.650306 C141.120178,104.806537 141.145037,104.968121 141.148413,105.130864 C141.148413,106.578698 141.148413,108.032693 141.148413,109.486688 L141.148413,109.720805 L143.569684,109.720805 L143.569684,109.535975 C143.588167,108.112785 143.594328,106.671112 143.588167,105.2356 Z" id="Path" fill="#F29104" fill-rule="nonzero"></path>
                <path d="M86.1738476,107.786253 C85.6708017,107.938405 85.1466585,108.009123 84.6212766,107.995727 C84.1489755,108.022323 83.7214422,107.717674 83.5923903,107.262568 C83.5607919,107.116786 83.5442757,106.968139 83.5431024,106.818976 L83.5431024,103.904825 C83.5431024,103.843215 83.5431024,103.787766 83.5431024,103.707673 L86.1245596,103.707673 L86.1245596,101.964112 L83.5246194,101.964112 L83.5246194,99.6537383 L81.146475,99.6537383 L81.146475,101.976434 L79.766412,101.976434 L79.766412,103.726156 L81.121831,103.726156 L81.121831,104.015723 C81.121831,105.247922 81.121831,106.480122 81.158797,107.712321 C81.1918848,108.715444 81.88572,109.575197 82.8592318,109.819381 C83.5767704,110.007145 84.3246866,110.049045 85.0587073,109.942601 C85.4741607,109.883339 85.8856462,109.798985 86.2909065,109.69 C86.3525164,109.69 86.4449314,109.591424 86.4449314,109.535975 C86.4449314,108.919876 86.4449314,108.359225 86.4449314,107.736965 L86.1738476,107.786253 Z" id="Path" fill="#F29104" fill-rule="nonzero"></path>
                <path d="M119.720469,105.636065 C118.968828,105.377303 118.198703,105.167829 117.440901,104.927551 C117.169155,104.84701 116.906838,104.737539 116.658455,104.601018 C116.508053,104.524136 116.41341,104.369466 116.41341,104.200553 C116.41341,104.031641 116.508053,103.87697 116.658455,103.800088 C116.814178,103.70693 116.98525,103.642256 117.163656,103.609098 C117.937498,103.50885 118.723656,103.56755 119.47403,103.781605 C119.856011,103.87402 120.225671,104.009562 120.613814,104.126621 C120.613814,103.596776 120.613814,103.079252 120.613814,102.561728 C120.639981,102.39054 120.525374,102.229544 120.355052,102.19823 C119.500685,101.90398 118.603281,101.754066 117.699663,101.754638 C116.905866,101.724403 116.116777,101.889414 115.401611,102.235196 C114.482146,102.660651 113.995638,103.680248 114.243344,104.662628 C114.402144,105.307144 114.860388,105.836415 115.475543,106.085818 C116.109884,106.358157 116.770525,106.564607 117.447062,106.701917 C117.869977,106.800052 118.282575,106.938273 118.679261,107.114704 C118.859251,107.173413 118.981045,107.341248 118.981045,107.530571 C118.981045,107.719894 118.859251,107.88773 118.679261,107.946439 C118.443448,108.051052 118.191152,108.113605 117.933781,108.131268 C117.142404,108.195972 116.345933,108.110262 115.586441,107.878668 C115.167494,107.761609 114.760868,107.619906 114.354242,107.478203 C114.354242,108.094302 114.354242,108.63647 114.354242,109.203282 C114.335199,109.320009 114.411096,109.431143 114.52675,109.455883 C115.727266,109.869861 117.0013,110.027279 118.266474,109.917957 C118.965258,109.872474 119.643173,109.661285 120.244154,109.301858 C120.749217,109.012162 121.105841,108.51983 121.223652,107.949626 C121.341463,107.379421 121.209154,106.78607 120.860254,106.319936 C120.555985,105.984681 120.159468,105.74677 119.720469,105.636065 Z" id="Path" fill="#F29104" fill-rule="nonzero"></path>
                <path d="M74.3570577,108.272971 L74.3570577,107.860185 C74.0859739,107.897151 73.8456951,107.9526 73.5992552,107.964922 C72.7613598,107.964922 72.471793,107.699999 72.471793,106.862103 L72.471793,98.557081 L70.0381997,98.557081 L70.0381997,106.695756 C70.0381997,107.077738 70.0381997,107.465881 70.0381997,107.841702 C70.0603833,108.665032 70.575656,109.394191 71.3443308,109.69 C72.2684345,110.020068 73.2731033,110.050251 74.2153548,109.776254 C74.3324137,109.776254 74.3385747,109.671517 74.3385747,109.572941 L74.3570577,108.272971 Z" id="Path" fill="#F29104" fill-rule="nonzero"></path>
            </g>
        </g>
    </g>
</svg>